UNKNOWN
version=1
nRows=77
nColumns=9
inDegrees=no
endheader
time	time	pelvis_tilt	hip_flexion_r	knee_angle_r	ankle_angle_r	hip_flexion_l	knee_angle_l	ankle_angle_l
    264.00000000	      7.01000000	     -5.06000584	     -4.23307698	    -17.30539480	    -43.90863696	     11.46483712	    -70.00089479	    -43.56910740
    265.00000000	      7.02000000	     -5.14386671	     -5.71215588	    -16.45005564	    -43.95411267	     12.60737061	    -68.74403365	    -42.49244486
    266.00000000	      7.03000000	     -5.24993156	     -7.11163518	    -15.61453831	    -44.16755027	     13.68061999	    -67.14283405	    -43.89437506
    267.00000000	      7.04000000	     -5.35810391	     -8.44572018	    -14.85474993	    -44.21751593	     14.61042961	    -65.19547891	    -42.76134300
    268.00000000	      7.05000000	     -5.52646080	     -9.72861171	    -14.13791421	    -44.40646138	     15.44817372	    -62.93150600	    -44.56171025
    269.00000000	      7.06000000	     -5.72376638	    -10.98298982	    -13.47059449	    -44.63247484	     16.14773121	    -60.36321117	    -44.51469998
    270.00000000	      7.07000000	     -5.97192185	    -12.12446173	    -12.84231313	    -44.79477125	     16.81397861	    -57.52878057	    -44.47707642
    271.00000000	      7.08000000	     -6.30949051	    -13.41698261	    -12.15421428	    -45.00448371	     17.24685793	    -54.43573406	    -44.24437499
    272.00000000	      7.09000000	     -6.70014382	    -14.79154619	    -11.44710035	    -45.03428631	     17.46973679	    -51.06627615	    -44.24044111
    273.00000000	      7.10000000	     -7.13418389	    -16.02537404	    -10.78077160	    -45.32278124	     17.68414046	    -47.48785511	    -43.72391250
    274.00000000	      7.11000000	     -7.59723663	    -17.37105043	    -10.10620598	    -45.49199786	     17.66441126	    -43.67987430	    -43.28409065
    275.00000000	      7.12000000	     -8.05827310	    -18.75513424	     -9.42990529	    -45.69076967	     17.49998356	    -39.67977565	    -42.77450877
    276.00000000	      7.13000000	     -8.52755482	    -20.22627121	     -8.74223352	    -45.85290593	     17.16443425	    -35.52195158	    -42.35471104
    277.00000000	      7.14000000	     -8.93393731	    -21.67653911	     -8.10408353	    -45.91912935	     16.71904402	    -31.22049557	    -42.03294672
    278.00000000	      7.15000000	     -9.36087623	    -23.05748282	     -7.56976282	    -45.97994611	     16.20981705	    -26.88362586	    -41.69678367
    279.00000000	      7.16000000	     -9.87885437	    -24.24509838	     -7.29042922	    -45.92621748	     15.64615176	    -22.59269118	    -41.24889037
    280.00000000	      7.17000000	    -10.61990951	    -25.09255289	     -7.43978811	    -46.04450161	     15.00949285	    -18.40175984	    -41.09814060
    281.00000000	      7.18000000	    -11.74422384	    -25.49255011	     -8.23609965	    -45.98467788	     14.26221355	    -14.48719165	    -40.75078854
    282.00000000	      7.19000000	    -13.17183315	    -25.33698390	     -9.67630759	    -45.94988596	     13.55379932	    -11.05473671	    -40.08693717
    283.00000000	      7.20000000	    -12.44155146	    -26.82532381	     -8.69065513	    -46.24950151	     13.63729675	     -8.14969283	    -39.81124362
    284.00000000	      7.21000000	    -11.22908781	    -28.45297800	     -7.52450011	    -46.22744534	     13.81603223	     -6.03194527	    -39.34109842
    285.00000000	      7.22000000	    -11.79560688	    -28.61570324	     -8.72405800	    -46.09351621	     13.65867090	     -5.05506087	    -38.26031846
    286.00000000	      7.23000000	    -12.13001265	    -28.67281762	    -10.05346235	    -45.98458163	     13.75158747	     -5.10782779	    -37.55937018
    287.00000000	      7.24000000	    -12.54479027	    -28.39417811	    -11.82788859	    -45.90711686	     13.99508609	     -6.06701976	    -37.38761172
    288.00000000	      7.25000000	    -13.26420965	    -27.60942585	    -14.33713871	    -45.84284567	     14.19483478	     -7.69127623	    -38.00499263
    289.00000000	      7.26000000	    -14.19968974	    -26.26848754	    -17.52381717	    -45.79969934	     14.26644221	     -9.63651334	    -39.52427626
    290.00000000	      7.27000000	    -12.84259729	    -27.73164488	    -17.47963998	    -45.75896051	     14.56720623	    -11.36119600	    -42.53076714
    291.00000000	      7.28000000	    -11.04068847	    -29.30744046	    -17.21045581	    -45.88230459	     14.78520191	    -12.83944321	    -46.37208362
    292.00000000	      7.29000000	    -11.30711276	    -28.55544402	    -19.88414894	    -46.69217724	     14.52840352	    -14.10210643	    -49.70257850
    293.00000000	      7.30000000	    -11.18671243	    -27.87148966	    -22.38474091	    -48.02623354	     14.14001327	    -14.96611418	    -52.86443658
    294.00000000	      7.31000000	    -10.78889392	    -26.91919386	    -24.97049481	    -49.82152865	     13.83728187	    -15.64133731	    -55.46042597
    295.00000000	      7.32000000	    -10.15546908	    -25.75181789	    -27.77667149	    -52.31270420	     13.50268561	    -16.31826203	    -56.98581461
    296.00000000	      7.33000000	     -9.39886541	    -24.12567999	    -31.00871504	    -55.20289208	     13.30962690	    -17.22364307	    -57.10999756
    297.00000000	      7.34000000	     -8.51396498	    -22.21742892	    -34.58249674	    -58.66024960	     13.22239267	    -18.43998030	    -56.69471573
    298.00000000	      7.35000000	     -7.54463468	    -20.31474858	    -38.32745940	    -62.31167851	     12.99701716	    -19.84303440	    -55.46245139
    299.00000000	      7.36000000	     -6.65981023	    -18.12901417	    -42.20383207	    -65.79646701	     12.91649424	    -21.32156973	    -54.28644583
    300.00000000	      7.37000000	     -5.88263380	    -16.06436009	    -45.94747463	    -69.00057240	     12.62046834	    -22.64001438	    -53.34492017
    301.00000000	      7.38000000	     -5.26137071	    -14.21874433	    -49.39032667	    -71.67065864	     12.09726523	    -23.69918212	    -53.01535239
    302.00000000	      7.39000000	     -4.77823083	    -12.52603694	    -52.45267079	    -73.00007763	     11.51894199	    -24.52312699	    -52.44584666
    303.00000000	      7.40000000	     -4.34695058	    -11.23455435	    -55.01192584	    -72.34227303	     10.74579382	    -25.06100269	    -52.36853240
    304.00000000	      7.41000000	     -3.94770259	    -10.24127919	    -57.13659416	    -66.79056901	      9.85196522	    -25.33261439	    -52.26367619
    305.00000000	      7.42000000	     -4.41372912	     -7.50728430	    -59.86171061	    -63.60832475	      9.11321089	    -25.30903189	    -52.10357894
    306.00000000	      7.43000000	     -4.86698863	     -4.50806738	    -62.44369440	    -62.99107300	      8.38393537	    -25.08145748	    -51.38814738
    307.00000000	      7.44000000	     -4.67840116	     -3.01802228	    -63.95795315	    -59.13621757	      7.32779403	    -24.65987685	    -50.72227103
    308.00000000	      7.45000000	     -4.53262765	     -1.27428410	    -65.28162232	    -57.08787667	      6.30569779	    -24.12614777	    -50.12273363
    309.00000000	      7.46000000	     -4.42559737	      0.38034869	    -66.30513718	    -54.89851043	      5.08613337	    -23.46056606	    -49.38147732
    310.00000000	      7.47000000	     -4.31491405	      2.06043994	    -67.01985778	    -53.35564529	      3.86504488	    -22.73992921	    -48.72012561
    311.00000000	      7.48000000	     -4.20413881	      3.60469131	    -67.37637843	    -52.32407821	      2.54162847	    -21.94286955	    -48.16507907
    312.00000000	      7.49000000	     -4.09929914	      4.98674796	    -67.36470532	    -51.37836088	      1.14582829	    -21.10448292	    -47.85049546
    313.00000000	      7.50000000	     -4.01224861	      6.11018999	    -66.97214150	    -50.42297012	     -0.37993053	    -20.24888852	    -47.69533760
    314.00000000	      7.51000000	     -3.93820519	      7.14315019	    -66.26384493	    -49.41019209	     -1.86272906	    -19.44589583	    -47.53417774
    315.00000000	      7.52000000	     -3.85477690	      8.06515692	    -65.26421587	    -48.28572790	     -3.33078067	    -18.70034408	    -47.34704993
    316.00000000	      7.53000000	     -3.73390674	      8.90991323	    -63.99889751	    -47.33163461	     -4.76146677	    -18.00431852	    -47.35352076
    317.00000000	      7.54000000	     -3.59721811	      9.66182663	    -62.45780818	    -46.02201160	     -6.15785814	    -17.35349396	    -47.14447053
    318.00000000	      7.55000000	     -3.39468505	     10.34688288	    -60.64919668	    -45.44902511	     -7.51996545	    -16.71082633	    -47.34194944
    319.00000000	      7.56000000	     -3.16250533	     11.01262817	    -58.56735977	    -44.55753412	     -8.76617167	    -16.11243234	    -47.40770592
    320.00000000	      7.57000000	     -2.89877330	     11.51856030	    -56.20254080	    -43.75124612	    -10.06986518	    -15.50328617	    -47.60565042
    321.00000000	      7.58000000	     -2.58421726	     11.93731595	    -53.58240701	    -43.14473063	    -11.32945532	    -14.93964166	    -47.82616218
    322.00000000	      7.59000000	     -2.21497713	     12.28047517	    -50.73252648	    -42.64441716	    -12.53674314	    -14.42825962	    -48.01353973
    323.00000000	      7.60000000	     -1.79531861	     12.54151194	    -47.68662915	    -42.21662253	    -13.72487564	    -13.95575364	    -48.13790949
    324.00000000	      7.61000000	     -1.34528027	     12.66582224	    -44.44935715	    -41.96721630	    -14.97039506	    -13.49104593	    -48.16240819
    325.00000000	      7.62000000	     -0.88137858	     12.65336938	    -41.02460802	    -41.91298070	    -16.27112525	    -13.02967987	    -48.11603643
    326.00000000	      7.63000000	     -0.41458820	     12.52884832	    -37.42216007	    -41.92768925	    -17.59455566	    -12.58258618	    -48.02515198
    327.00000000	      7.64000000	      0.03485103	     12.31455777	    -33.63469354	    -41.95055702	    -18.90317980	    -12.16828574	    -47.90167279
    328.00000000	      7.65000000	      0.45948353	     12.03854279	    -29.67871960	    -41.84373236	    -20.16591873	    -11.79903596	    -47.74415667
    329.00000000	      7.66000000	      0.84637845	     11.72166320	    -25.61050879	    -41.54348909	    -21.36882724	    -11.48326226	    -47.54077611
    330.00000000	      7.67000000	      1.19365646	     11.38884028	    -21.52342877	    -41.09855563	    -22.50438900	    -11.21796411	    -47.30595051
    331.00000000	      7.68000000	      1.48893373	     11.05866583	    -17.53639881	    -40.50357838	    -23.57780088	    -11.00208291	    -47.02330468
    332.00000000	      7.69000000	      1.74739528	     10.77264866	    -13.77770402	    -40.02524789	    -24.54752323	    -10.87843485	    -46.72543620
    333.00000000	      7.70000000	      1.97225857	     10.53728228	    -10.39348573	    -39.43931893	    -25.42985200	    -10.86070010	    -46.40812433
    334.00000000	      7.71000000	      2.13947236	     10.37603860	     -7.49378993	    -38.68044815	    -26.17922410	    -11.00073811	    -46.12906424
    335.00000000	      7.72000000	      2.28040268	     10.30574757	     -5.24596271	    -37.68437632	    -26.83203327	    -11.30264297	    -45.93842947
    336.00000000	      7.73000000	      2.40534205	     10.37084061	     -3.77083232	    -36.67128458	    -27.37974100	    -11.78458102	    -45.77349712
    337.00000000	      7.74000000	      2.48092559	     10.53257900	     -3.10962987	    -35.97687075	    -27.88097429	    -12.42969575	    -45.67095378
    338.00000000	      7.75000000	      2.49155824	     10.77771014	     -3.24140922	    -35.96477373	    -28.36815188	    -13.20380505	    -45.62095586
    339.00000000	      7.76000000	      2.44385575	     11.09101086	     -4.09458014	    -36.42529337	    -28.78801962	    -14.17859881	    -45.17760988
    340.00000000	      7.77000000	      2.33576353	     11.41512905	     -5.45339376	    -38.21408651	    -29.17290039	    -15.27398737	    -45.05689669
